# xmcd
# 
# Track frame offsets:
#     150
#     11161
#     19304
#     32978
#     39403
#     52119
#     65299
#     84852
#     98994
#     117313
#     134839
#     148333
#     159001
#     176679
#     194011
#     209924
#     223322
#     241022
# 
# Disc length: 3390
# 
# Revision: 0
# Processed by: cddbd v1.5.2PL0 Copyright (c) Steve Scherf et al.
# Submitted via: BonkEnc v1.0.5
# 
DISCID=150d3c12
DTITLE=Zillertaler Schürzenjäger - Rebellion In Den Alpen - 20 Jahre Live - CD 1
DYEAR=2000
DGENRE=Deutsch
TTITLE0=Die Berge Sind Mein Zuhaus
TTITLE1=Auf Der Jodleralm
TTITLE2=Grüne Tannen
TTITLE3=Hey Mann Polka
TTITLE4=Tirol I Bin A Kind Von Dir
TTITLE5=Ich Lieb Die Berge Meiner Heimat
TTITLE6=Frag Die Zigeunerin
TTITLE7=Ich Habe Dir Zu Danken
TTITLE8=Canada
TTITLE9=Logo Logo
TTITLE10=Ohne Musik Geht Nix
TTITLE11=Timple Boarischer
TTITLE12=Zillertaler Hochzeitsblues
TTITLE13=Mein Tirol, Ich Vermisse Dich
TTITLE14=Was Dann?
TTITLE15=Die Bajuwaren
TTITLE16=Alles Braucht Im Leben Seine Zeit
TTITLE17=Dahoam Ist Dahoam
EXTD=
EXTT0=
EXTT1=
EXTT2=
EXTT3=
EXTT4=
EXTT5=
EXTT6=
EXTT7=
EXTT8=
EXTT9=
EXTT10=
EXTT11=
EXTT12=
EXTT13=
EXTT14=
EXTT15=
EXTT16=
EXTT17=
PLAYORDER=
